<?xml version="1.0" encoding="utf-8"?>
<!-- Generator: Adobe Illustrator 19.1.0, SVG Export Plug-In . SVG Version: 6.00 Build 0)  -->
<svg version="1.1" xmlns="http://www.w3.org/2000/svg" xmlns:xlink="http://www.w3.org/1999/xlink" x="0px" y="0px"
	 viewBox="0 0 1920 1080" style="enable-background:new 0 0 1920 1080;" xml:space="preserve">
<style type="text/css">
	.st0{display:none;}
	.st1{display:inline;}
	.st2{fill:none;stroke:#47B754;stroke-width:7.200000e-02;stroke-miterlimit:10;}
	.st3{fill:#48B753;}
	.st4{fill:#48B749;}
	.st5{fill:#47B754;}
	.st6{font-family:'IstokWeb-Regular';}
	.st7{font-size:176.6652px;}
	.st8{fill:#49B751;}
</style>
<g id="Layer_1" class="st0">
</g>
<g id="Layer_3" class="st0">
	<g class="st1">
		<line class="st2" x1="998.5" y1="-151.1" x2="951.1" y2="-151.1"/>
		<line class="st2" x1="951.1" y1="-151.1" x2="943" y2="-151.1"/>
	</g>
</g>
<g id="Layer_2">
</g>
<g id="Layer_4">
	<g>
		<g>
			<g>
				<g>
					<path class="st3" d="M819.8,384.1c27.9,0,55.8,0,83.6,0c44.2,0,88.5,0,132.7,0c10.2,0,20.3,0,30.5,0c5.4,0,5.4-8.4,0-8.4
						c-27.9,0-55.8,0-83.6,0c-44.2,0-88.5,0-132.7,0c-10.2,0-20.3,0-30.5,0C814.4,375.7,814.4,384.1,819.8,384.1L819.8,384.1z"/>
				</g>
			</g>
			<g>
				<line class="st4" x1="1089.2" y1="379.9" x2="1089.2" y2="676.3"/>
				<g>
					<path class="st5" d="M1085.1,379.9c0,33.5,0,67,0,100.5c0,53,0,106.1,0,159.1c0,12.3,0,24.5,0,36.8c0,5.4,8.3,5.4,8.3,0
						c0-33.5,0-67,0-100.5c0-53,0-106.1,0-159.1c0-12.3,0-24.5,0-36.8C1093.4,374.5,1085.1,374.5,1085.1,379.9L1085.1,379.9z"/>
				</g>
			</g>
			<g>
				<line class="st4" x1="819.8" y1="379.9" x2="819.8" y2="676.3"/>
				<g>
					<path class="st5" d="M815.6,379.9c0,33.5,0,67,0,100.5c0,53,0,106.1,0,159.1c0,12.3,0,24.5,0,36.8c0,5.4,8.3,5.4,8.3,0
						c0-33.5,0-67,0-100.5c0-53,0-106.1,0-159.1c0-12.3,0-24.5,0-36.8C824,374.5,815.6,374.5,815.6,379.9L815.6,379.9z"/>
				</g>
			</g>
			<g>
				<line class="st4" x1="819.8" y1="676.3" x2="1089.2" y2="676.3"/>
				<g>
					<path class="st5" d="M819.8,680.5c30.3,0,60.7,0,91,0c48.4,0,96.7,0,145.1,0c11.1,0,22.2,0,33.3,0c5.4,0,5.4-8.3,0-8.3
						c-30.3,0-60.7,0-91,0c-48.4,0-96.7,0-145.1,0c-11.1,0-22.2,0-33.3,0C814.4,672.1,814.4,680.5,819.8,680.5L819.8,680.5z"/>
				</g>
			</g>
			<g>
				<line class="st4" x1="819.8" y1="379.9" x2="1089.2" y2="379.9"/>
				<g>
					<path class="st5" d="M819.8,384.1c30.3,0,60.7,0,91,0c48.4,0,96.7,0,145.1,0c11.1,0,22.2,0,33.3,0c5.4,0,5.4-8.4,0-8.4
						c-30.3,0-60.7,0-91,0c-48.4,0-96.7,0-145.1,0c-11.1,0-22.2,0-33.3,0C814.4,375.7,814.4,384.1,819.8,384.1L819.8,384.1z"/>
				</g>
			</g>
		</g>
		<text transform="matrix(1 0 0 1 693.9289 350.8146)" class="st6 st7">Be</text>
		<text transform="matrix(1 0 0 1 905.7892 350.8146)" class="st3 st6 st7">h</text>
		<text transform="matrix(1 0 0 1 1003.093 350.8146)" class="st8 st6 st7">o</text>
		<text transform="matrix(0.91 0 0 1 1102.1223 350.8146)" class="st8 st6 st7">ld</text>
		<path class="st3" d="M975.8,343v33.1c0,2.6,1.3,3.9,3.9,3.9h7.4c2.6,0,3.9-1.3,3.9-3.9v-32.4C986,343.5,980.9,343.3,975.8,343z"/>
		<path class="st3" d="M928.1,343.1c-0.5,0.1-1,0.2-1.4,0.4c-2.8,0.7-5.8,0.6-8.7,0v32.7c0,2.6,1.3,3.9,3.9,3.9h7.4
			c2.6,0,3.9-1.3,3.9-3.9v-32.9C931.5,343.3,929.8,343.3,928.1,343.1z"/>
		<g>
			<path class="st3" d="M933.2,259.5v-33.9c0-2.6-1.3-3.9-3.9-3.9h-7.4c-2.6,0-3.9,1.3-3.9,3.9v34.2
				C923.1,259.8,928.2,259.6,933.2,259.5z"/>
		</g>
		<text transform="matrix(-0.91 0 0 -1 1138.2152 221.9713)" class="st8 st6 st7">l</text>
	</g>
</g>
</svg>
